<?xml version="1.0" standalone="no"?><!DOCTYPE svg PUBLIC "-//W3C//DTD SVG 1.1//EN" "http://www.w3.org/Graphics/SVG/1.1/DTD/svg11.dtd"><svg t="1538133403532" class="icon" style="" viewBox="0 0 1024 1024" version="1.1" xmlns="http://www.w3.org/2000/svg" p-id="1823" xmlns:xlink="http://www.w3.org/1999/xlink" width="200" height="200"><defs><style type="text/css"></style></defs><path d="M561.036 501.899l287.258-285.766c6.32-6.273 10.231-14.962 10.231-24.567 0-9.535-3.856-18.171-10.092-24.429-6.268-6.325-14.959-10.243-24.565-10.243-9.538 0-18.174 3.862-24.429 10.105l-287.329 285.801-284.828-285.702c-13.479-13.515-35.414-13.582-48.997-0.071-13.55 13.515-13.582 35.45-0.071 49.031l284.761 285.628-287.12 285.596c-6.32 6.273-10.23 14.962-10.23 24.567 0 9.535 3.856 18.171 10.092 24.429 6.267 6.314 14.951 10.223 24.549 10.223 0.007 0 0.013 0 0.021 0 8.835 0 17.67-3.362 24.429-10.081l287.191-285.663 287.431 288.297c6.248 6.293 14.901 10.189 24.465 10.189 0.023 0 0.048 0 0.072 0 0.002 0 0.007 0 0.015 0 9.545 0 18.187-3.866 24.444-10.118 13.55-13.515 13.582-35.414 0.071-48.996l-287.368-288.231z" fill="#ffffff" p-id="1824"></path></svg>