<?xml version="1.0" encoding="utf-8"?>
<!-- Generator: Adobe Illustrator 21.0.0, SVG Export Plug-In . SVG Version: 6.00 Build 0)  -->
<svg version="1.1" id="图层_1" xmlns="http://www.w3.org/2000/svg" xmlns:xlink="http://www.w3.org/1999/xlink" x="0px" y="0px"
	 viewBox="0 0 200 200" style="enable-background:new 0 0 200 200;" xml:space="preserve">
<path style="fill:#ffffff" d="M98.6,189.6c-0.1,0-0.2,0-0.4,0c-47.5-0.2-86-39.9-85.8-88.5c0.1-23.5,9.1-45.6,25.4-62.1c16.3-16.5,37.8-25.6,60.7-25.6
	c0.1,0,0.3,0,0.4,0c13.5,0.1,26.5,3.3,38.7,9.6l15.3,8l-16.3,5.5c-20.5,6.9-34.4,26.5-34.5,48.6c-0.1,28.4,22.2,51.5,49.8,51.7h0
	c4.2-0.1,8.5-0.6,12.8-1.7l17-4.5l-8.7,15.3C157.5,172.8,129.1,189.6,98.6,189.6z M98.6,28.1c-18.9,0-36.8,7.5-50.2,21.2
	c-13.6,13.8-21.1,32.2-21.2,51.9c-0.2,40.5,31.8,73.6,71.2,73.7c0.1,0,0.2,0,0.3,0c20,0,38.9-8.7,52.3-23.5
	c-35.2-0.7-63.6-30.3-63.4-66.4c0.1-22.4,11.2-42.7,28.8-54.7c-5.6-1.5-11.4-2.3-17.3-2.3C98.8,28.1,98.7,28.1,98.6,28.1z"/>
</svg>
